{
  "accessors": [
    {
      "bufferView": 2,
      "componentType": 5126,
      "count": 65532,
      "max": [
        5.8826556205749512,
        -6.1817264556884766,
        4.8151774406433105
      ],
      "min": [
        -6.3269557952880859,
        -18.42091178894043,
        -6.6803131103515625
      ],
      "type": "VEC3"
    },
    {
      "bufferView": 2,
      "byteOffset": 786384,
      "componentType": 5126,
      "count": 65532,
      "max": [
        0.99997460842132568,
        1,
        0.99996143579483032
      ],
      "min": [
        -0.99999940395355225,
        -0.99999433755874634,
        -0.99986886978149414
      ],
      "type": "VEC3"
    },
    {
      "bufferView": 3,
      "componentType": 5126,
      "count": 65532,
      "max": [
        1,
        1,
        0.99988609552383423,
        -1
      ],
      "min": [
        -0.99999994039535522,
        -1,
        -0.99995791912078857,
        -1
      ],
      "type": "VEC4"
    },
    {
      "bufferView": 3,
      "byteOffset": 1048512,
      "componentType": 5126,
      "count": 65532,
      "max": [
        0.90196079015731812,
        0.90196079015731812,
        0.91764706373214722,
        1
      ],
      "min": [
        0,
        0.035294119268655777,
        0.027450980618596077,
        1
      ],
      "type": "VEC4"
    },
    {
      "bufferView": 1,
      "componentType": 5126,
      "count": 65532,
      "max": [
        0.99975597858428955,
        0.38159200549125671
      ],
      "min": [
        0.00024399999529123306,
        0.00024399999529123306
      ],
      "type": "VEC2"
    },
    {
      "bufferView": 0,
      "componentType": 5125,
      "count": 294897,
      "max": [
        65531
      ],
      "min": [
        0
      ],
      "type": "SCALAR"
    },
    {
      "bufferView": 2,
      "byteOffset": 1572768,
      "componentType": 5126,
      "count": 65532,
      "max": [
        5.6853623390197754,
        -8.5505256652832031,
        3.1960654258728027
      ],
      "min": [
        -5.2267289161682129,
        -18.299713134765625,
        -3.4436492919921875
      ],
      "type": "VEC3"
    },
    {
      "bufferView": 2,
      "byteOffset": 2359152,
      "componentType": 5126,
      "count": 65532,
      "max": [
        0.99999821186065674,
        0.99981343746185303,
        0.99952799081802368
      ],
      "min": [
        -0.99990314245223999,
        -0.9999428391456604,
        -0.99999582767486572
      ],
      "type": "VEC3"
    },
    {
      "bufferView": 3,
      "byteOffset": 2097024,
      "componentType": 5126,
      "count": 65532,
      "max": [
        1,
        0.9999997615814209,
        0.99993634223937988,
        -1
      ],
      "min": [
        -0.99999946355819702,
        -1,
        -0.99963504076004028,
        -1
      ],
      "type": "VEC4"
    },
    {
      "bufferView": 3,
      "byteOffset": 3145536,
      "componentType": 5126,
      "count": 65532,
      "max": [
        0.83137255907058716,
        0.94509804248809814,
        0.98039215803146362,
        1
      ],
      "min": [
        0.011764706112444401,
        0.011764706112444401,
        0.023529412224888802,
        1
      ],
      "type": "VEC4"
    },
    {
      "bufferView": 1,
      "byteOffset": 524256,
      "componentType": 5126,
      "count": 65532,
      "max": [
        0.99975597858428955,
        0.38354501128196716
      ],
      "min": [
        0.00024399999529123306,
        0.00024399999529123306
      ],
      "type": "VEC2"
    },
    {
      "bufferView": 0,
      "byteOffset": 1179588,
      "componentType": 5125,
      "count": 279576,
      "max": [
        65531
      ],
      "min": [
        0
      ],
      "type": "SCALAR"
    },
    {
      "bufferView": 2,
      "byteOffset": 3145536,
      "componentType": 5126,
      "count": 65532,
      "max": [
        4.2470107078552246,
        -8.4185409545898438,
        2.9082729816436768
      ],
      "min": [
        -4.2392420768737793,
        -17.683507919311523,
        -4.6887989044189453
      ],
      "type": "VEC3"
    },
    {
      "bufferView": 2,
      "byteOffset": 3931920,
      "componentType": 5126,
      "count": 65532,
      "max": [
        0.99996113777160645,
        0.99966675043106079,
        0.99998360872268677
      ],
      "min": [
        -0.99999779462814331,
        -0.99998873472213745,
        -0.99999582767486572
      ],
      "type": "VEC3"
    },
    {
      "bufferView": 3,
      "byteOffset": 4194048,
      "componentType": 5126,
      "count": 65532,
      "max": [
        1,
        0.99999904632568359,
        0.99872136116027832,
        1
      ],
      "min": [
        -0.99999994039535522,
        -0.99999970197677612,
        -0.99999600648880005,
        -1
      ],
      "type": "VEC4"
    },
    {
      "bufferView": 3,
      "byteOffset": 5242560,
      "componentType": 5126,
      "count": 65532,
      "max": [
        0.80784314870834351,
        0.94509804248809814,
        0.96078431606292725,
        1
      ],
      "min": [
        0.027450980618596077,
        0.027450980618596077,
        0.031372550874948502,
        1
      ],
      "type": "VEC4"
    },
    {
      "bufferView": 1,
      "byteOffset": 1048512,
      "componentType": 5126,
      "count": 65532,
      "max": [
        0.99975597858428955,
        0.39331001043319702
      ],
      "min": [
        0.00024399999529123306,
        0.00024399999529123306
      ],
      "type": "VEC2"
    },
    {
      "bufferView": 0,
      "byteOffset": 2297892,
      "componentType": 5125,
      "count": 254127,
      "max": [
        65531
      ],
      "min": [
        0
      ],
      "type": "SCALAR"
    },
    {
      "bufferView": 2,
      "byteOffset": 4718304,
      "componentType": 5126,
      "count": 65532,
      "max": [
        6.550837516784668,
        -6.1812171936035156,
        5.1014914512634277
      ],
      "min": [
        -2.3453507423400879,
        -18.424064636230469,
        -1.9618401527404785
      ],
      "type": "VEC3"
    },
    {
      "bufferView": 2,
      "byteOffset": 5504688,
      "componentType": 5126,
      "count": 65532,
      "max": [
        0.9999580979347229,
        0.99999982118606567,
        0.99999380111694336
      ],
      "min": [
        -0.99997329711914062,
        -0.99996691942214966,
        -0.99985015392303467
      ],
      "type": "VEC3"
    },
    {
      "bufferView": 3,
      "byteOffset": 6291072,
      "componentType": 5126,
      "count": 65532,
      "max": [
        1,
        0.99999994039535522,
        0.99998301267623901,
        1
      ],
      "min": [
        -1,
        -0.99999994039535522,
        -0.99996691942214966,
        -1
      ],
      "type": "VEC4"
    },
    {
      "bufferView": 3,
      "byteOffset": 7339584,
      "componentType": 5126,
      "count": 65532,
      "max": [
        0.86274510622024536,
        0.88627451658248901,
        0.90980392694473267,
        1
      ],
      "min": [
        0.011764706112444401,
        0.011764706112444401,
        0.011764706112444401,
        1
      ],
      "type": "VEC4"
    },
    {
      "bufferView": 1,
      "byteOffset": 1572768,
      "componentType": 5126,
      "count": 65532,
      "max": [
        0.99975597858428955,
        0.42065200209617615
      ],
      "min": [
        0.00024399999529123306,
        0.00024399999529123306
      ],
      "type": "VEC2"
    },
    {
      "bufferView": 0,
      "byteOffset": 3314400,
      "componentType": 5125,
      "count": 257136,
      "max": [
        65531
      ],
      "min": [
        0
      ],
      "type": "SCALAR"
    },
    {
      "bufferView": 2,
      "byteOffset": 6291072,
      "componentType": 5126,
      "count": 65532,
      "max": [
        6.2101683616638184,
        -6.1812171936035156,
        5.1051535606384277
      ],
      "min": [
        -7.0731611251831055,
        -10.060251235961914,
        -4.9416284561157227
      ],
      "type": "VEC3"
    },
    {
      "bufferView": 2,
      "byteOffset": 7077456,
      "componentType": 5126,
      "count": 65532,
      "max": [
        0.99998939037322998,
        1,
        0.99994510412216187
      ],
      "min": [
        -0.99988830089569092,
        -0.99999934434890747,
        -0.99991554021835327
      ],
      "type": "VEC3"
    },
    {
      "bufferView": 3,
      "byteOffset": 8388096,
      "componentType": 5126,
      "count": 65532,
      "max": [
        1,
        0.9999995231628418,
        0.99979722499847412,
        -1
      ],
      "min": [
        -1,
        -1,
        -0.9997718334197998,
        -1
      ],
      "type": "VEC4"
    },
    {
      "bufferView": 3,
      "byteOffset": 9436608,
      "componentType": 5126,
      "count": 65532,
      "max": [
        0.86274510622024536,
        0.87450981140136719,
        0.89411765336990356,
        1
      ],
      "min": [
        0.011764706112444401,
        0.011764706112444401,
        0.011764706112444401,
        1
      ],
      "type": "VEC4"
    },
    {
      "bufferView": 1,
      "byteOffset": 2097024,
      "componentType": 5126,
      "count": 65532,
      "max": [
        0.99975597858428955,
        0.38137200474739075
      ],
      "min": [
        0.00024399999529123306,
        0.00024399999529123306
      ],
      "type": "VEC2"
    },
    {
      "bufferView": 0,
      "byteOffset": 4342944,
      "componentType": 5125,
      "count": 274536,
      "max": [
        65531
      ],
      "min": [
        0
      ],
      "type": "SCALAR"
    },
    {
      "bufferView": 2,
      "byteOffset": 7863840,
      "componentType": 5126,
      "count": 37357,
      "max": [
        6.6464190483093262,
        -6.1817302703857422,
        1.7836227416992188
      ],
      "min": [
        -4.2335391044616699,
        -10.064468383789062,
        -5.7512240409851074
      ],
      "type": "VEC3"
    },
    {
      "bufferView": 2,
      "byteOffset": 8312124,
      "componentType": 5126,
      "count": 37357,
      "max": [
        0.99990439414978027,
        0.99999988079071045,
        0.99955302476882935
      ],
      "min": [
        -0.99997937679290771,
        -0.99999278783798218,
        -0.99983078241348267
      ],
      "type": "VEC3"
    },
    {
      "bufferView": 3,
      "byteOffset": 10485120,
      "componentType": 5126,
      "count": 37357,
      "max": [
        1,
        0.9999997615814209,
        0.99977731704711914,
        1
      ],
      "min": [
        -1,
        -1,
        -0.9996684193611145,
        -1
      ],
      "type": "VEC4"
    },
    {
      "bufferView": 3,
      "byteOffset": 11082832,
      "componentType": 5126,
      "count": 37357,
      "max": [
        0.87450981140136719,
        0.88627451658248901,
        0.92549020051956177,
        1
      ],
      "min": [
        0,
        0.011764706112444401,
        0.015686275437474251,
        1
      ],
      "type": "VEC4"
    },
    {
      "bufferView": 1,
      "byteOffset": 2621280,
      "componentType": 5126,
      "count": 37357,
      "max": [
        0.99975597858428955,
        0.46752899885177612
      ],
      "min": [
        0.00024399999529123306,
        0.00024399999529123306
      ],
      "type": "VEC2"
    },
    {
      "bufferView": 0,
      "byteOffset": 5441088,
      "componentType": 5125,
      "count": 139728,
      "max": [
        37356
      ],
      "min": [
        0
      ],
      "type": "SCALAR"
    }
  ],
  "asset": {
    "extras": {
      "author": "Geoffrey Marchal (https://sketchfab.com/geoffreymarchal)",
      "license": "CC-BY-NC-4.0 (http://creativecommons.org/licenses/by-nc/4.0/)",
      "source": "https://sketchfab.com/models/5c118fc39a9a41a69a4e09d1f9c3bbe9",
      "title": "Cupid on the turtle"
    },
    "generator": "Sketchfab-3.24.2",
    "version": "2.0"
  },
  "bufferViews": [
    {
      "buffer": 0,
      "byteLength": 6000000,
      "byteOffset": 0,
      "name": "floatBufferViews",
      "target": 34963
    },
    {
      "buffer": 0,
      "byteLength": 2920136,
      "byteOffset": 6000000,
      "byteStride": 8,
      "name": "floatBufferViews",
      "target": 34962
    },
    {
      "buffer": 0,
      "byteLength": 8760408,
      "byteOffset": 8920136,
      "byteStride": 12,
      "name": "floatBufferViews",
      "target": 34962
    },
    {
      "buffer": 0,
      "byteLength": 11680544,
      "byteOffset": 17680544,
      "byteStride": 16,
      "name": "floatBufferViews",
      "target": 34962
    }
  ],
  "buffers": [
    {
      "byteLength": 29361088,
      "uri": "scene.bin"
    }
  ],
  "images": [
    {
      "uri": "textures/cherubin_tortue_-_LowPoly_Material_u1_v1_baseColor.jpeg"
    }
  ],
  "materials": [
    {
      "doubleSided": true,
      "name": "cherubin_tortue_-_LowPoly_Material_u1_v1",
      "pbrMetallicRoughness": {
        "baseColorFactor": [
          1,
          1,
          1,
          1
        ],
        "baseColorTexture": {
          "index": 0,
          "texCoord": 0
        },
        "metallicFactor": 0,
        "roughnessFactor": 1
      }
    }
  ],
  "meshes": [
    {
      "primitives": [
        {
          "attributes": {
            "COLOR_0": 3,
            "NORMAL": 1,
            "POSITION": 0,
            "TANGENT": 2,
            "TEXCOORD_0": 4
          },
          "indices": 5,
          "material": 0,
          "mode": 4
        }
      ]
    },
    {
      "primitives": [
        {
          "attributes": {
            "COLOR_0": 9,
            "NORMAL": 7,
            "POSITION": 6,
            "TANGENT": 8,
            "TEXCOORD_0": 10
          },
          "indices": 11,
          "material": 0,
          "mode": 4
        }
      ]
    },
    {
      "primitives": [
        {
          "attributes": {
            "COLOR_0": 15,
            "NORMAL": 13,
            "POSITION": 12,
            "TANGENT": 14,
            "TEXCOORD_0": 16
          },
          "indices": 17,
          "material": 0,
          "mode": 4
        }
      ]
    },
    {
      "primitives": [
        {
          "attributes": {
            "COLOR_0": 21,
            "NORMAL": 19,
            "POSITION": 18,
            "TANGENT": 20,
            "TEXCOORD_0": 22
          },
          "indices": 23,
          "material": 0,
          "mode": 4
        }
      ]
    },
    {
      "primitives": [
        {
          "attributes": {
            "COLOR_0": 27,
            "NORMAL": 25,
            "POSITION": 24,
            "TANGENT": 26,
            "TEXCOORD_0": 28
          },
          "indices": 29,
          "material": 0,
          "mode": 4
        }
      ]
    },
    {
      "primitives": [
        {
          "attributes": {
            "COLOR_0": 33,
            "NORMAL": 31,
            "POSITION": 30,
            "TANGENT": 32,
            "TEXCOORD_0": 34
          },
          "indices": 35,
          "material": 0,
          "mode": 4
        }
      ]
    }
  ],
  "nodes": [
    {
      "children": [
        1
      ],
      "name": "RootNode (gltf orientation matrix)",
      "rotation": [
        -0.70710678118654746,
        -0,
        -0,
        0.70710678118654757
      ]
    },
    {
      "children": [
        2
      ],
      "matrix": [
        0.358225017786026,
        0.93363529443740845,
        0,
        0,
        0,
        0,
        -1,
        0,
        -0.93363529443740845,
        0.358225017786026,
        0,
        0,
        -0.87226009368896484,
        -11.821330070495605,
        -13.090268135070801,
        1
      ],
      "name": "RootNode (model correction matrix)"
    },
    {
      "children": [
        3,
        4,
        5,
        6,
        7,
        8
      ],
      "name": "cherubin_tortue_-_LowPoly.obj.cleaner.materialmerger.gles"
    },
    {
      "mesh": 0,
      "name": ""
    },
    {
      "mesh": 1,
      "name": ""
    },
    {
      "mesh": 2,
      "name": ""
    },
    {
      "mesh": 3,
      "name": ""
    },
    {
      "mesh": 4,
      "name": ""
    },
    {
      "mesh": 5,
      "name": ""
    }
  ],
  "samplers": [
    {
      "magFilter": 9729,
      "minFilter": 9987,
      "wrapS": 10497,
      "wrapT": 10497
    }
  ],
  "scene": 0,
  "scenes": [
    {
      "name": "OSG_Scene",
      "nodes": [
        0
      ]
    }
  ],
  "textures": [
    {
      "sampler": 0,
      "source": 0
    }
  ]
}

