<svg width="94" height="42" viewBox="0 0 94 42" fill="none" xmlns="http://www.w3.org/2000/svg">
<path d="M80.6083 28.3123H80.1061V28.9593H79.1742V28.3123H77.3876V27.6894L78.9038 25.5793H79.8937L78.5175 27.5542H79.2032V26.9796H80.1061V27.5542H80.6083V28.3123Z" fill="white"/>
<path d="M82.5358 29.0269C82.2461 29.0269 81.9886 28.9577 81.7633 28.8193C81.5379 28.6809 81.3609 28.4797 81.2321 28.2157C81.1066 27.9485 81.0438 27.633 81.0438 27.2693C81.0438 26.9055 81.1066 26.5917 81.2321 26.3277C81.3609 26.0605 81.5379 25.8577 81.7633 25.7193C81.9886 25.5809 82.2461 25.5117 82.5358 25.5117C82.8223 25.5117 83.0783 25.5809 83.3036 25.7193C83.5289 25.8577 83.7044 26.0605 83.8299 26.3277C83.9587 26.5917 84.023 26.9055 84.023 27.2693C84.023 27.633 83.9587 27.9485 83.8299 28.2157C83.7044 28.4797 83.5289 28.6809 83.3036 28.8193C83.0783 28.9577 82.8223 29.0269 82.5358 29.0269ZM82.5358 28.2447C82.6968 28.2447 82.8239 28.1674 82.9173 28.0129C83.0139 27.8552 83.0622 27.6073 83.0622 27.2693C83.0622 26.9313 83.0139 26.685 82.9173 26.5305C82.8239 26.3728 82.6968 26.2939 82.5358 26.2939C82.3717 26.2939 82.2413 26.3728 82.1447 26.5305C82.0514 26.685 82.0047 26.9313 82.0047 27.2693C82.0047 27.6073 82.0514 27.8552 82.1447 28.0129C82.2413 28.1674 82.3717 28.2447 82.5358 28.2447Z" fill="white"/>
<path d="M87.7776 28.3123H87.2754V28.9593H86.3435V28.3123H84.5569V27.6894L86.0731 25.5793H87.063L85.6868 27.5542H86.3725V26.9796H87.2754V27.5542H87.7776V28.3123Z" fill="white"/>
<path d="M89.7051 29.0269C89.4154 29.0269 89.1579 28.9577 88.9326 28.8193C88.7072 28.6809 88.5302 28.4797 88.4014 28.2157C88.2759 27.9485 88.2131 27.633 88.2131 27.2693C88.2131 26.9055 88.2759 26.5917 88.4014 26.3277C88.5302 26.0605 88.7072 25.8577 88.9326 25.7193C89.1579 25.5809 89.4154 25.5117 89.7051 25.5117C89.9916 25.5117 90.2476 25.5809 90.4729 25.7193C90.6982 25.8577 90.8737 26.0605 90.9992 26.3277C91.128 26.5917 91.1924 26.9055 91.1924 27.2693C91.1924 27.633 91.128 27.9485 90.9992 28.2157C90.8737 28.4797 90.6982 28.6809 90.4729 28.8193C90.2476 28.9577 89.9916 29.0269 89.7051 29.0269ZM89.7051 28.2447C89.8661 28.2447 89.9933 28.1674 90.0866 28.0129C90.1832 27.8552 90.2315 27.6073 90.2315 27.2693C90.2315 26.9313 90.1832 26.685 90.0866 26.5305C89.9933 26.3728 89.8661 26.2939 89.7051 26.2939C89.541 26.2939 89.4106 26.3728 89.314 26.5305C89.2207 26.685 89.174 26.9313 89.174 27.2693C89.174 27.6073 89.2207 27.8552 89.314 28.0129C89.4106 28.1674 89.541 28.2447 89.7051 28.2447Z" fill="white"/>
<path d="M80.6083 33.3123H80.1061V33.9593H79.1742V33.3123H77.3876V32.6894L78.9038 30.5793H79.8937L78.5175 32.5542H79.2032V31.9796H80.1061V32.5542H80.6083V33.3123Z" fill="white"/>
<path d="M82.5358 34.0269C82.2461 34.0269 81.9886 33.9577 81.7633 33.8193C81.5379 33.6809 81.3609 33.4797 81.2321 33.2157C81.1066 32.9485 81.0438 32.633 81.0438 32.2693C81.0438 31.9055 81.1066 31.5917 81.2321 31.3277C81.3609 31.0605 81.5379 30.8577 81.7633 30.7193C81.9886 30.5809 82.2461 30.5117 82.5358 30.5117C82.8223 30.5117 83.0783 30.5809 83.3036 30.7193C83.5289 30.8577 83.7044 31.0605 83.8299 31.3277C83.9587 31.5917 84.023 31.9055 84.023 32.2693C84.023 32.633 83.9587 32.9485 83.8299 33.2157C83.7044 33.4797 83.5289 33.6809 83.3036 33.8193C83.0783 33.9577 82.8223 34.0269 82.5358 34.0269ZM82.5358 33.2447C82.6968 33.2447 82.8239 33.1674 82.9173 33.0129C83.0139 32.8552 83.0622 32.6073 83.0622 32.2693C83.0622 31.9313 83.0139 31.685 82.9173 31.5305C82.8239 31.3728 82.6968 31.2939 82.5358 31.2939C82.3717 31.2939 82.2413 31.3728 82.1447 31.5305C82.0514 31.685 82.0047 31.9313 82.0047 32.2693C82.0047 32.6073 82.0514 32.8552 82.1447 33.0129C82.2413 33.1674 82.3717 33.2447 82.5358 33.2447Z" fill="white"/>
<path d="M87.7776 33.3123H87.2754V33.9593H86.3435V33.3123H84.5569V32.6894L86.0731 30.5793H87.063L85.6868 32.5542H86.3725V31.9796H87.2754V32.5542H87.7776V33.3123Z" fill="white"/>
<path d="M89.7051 34.0269C89.4154 34.0269 89.1579 33.9577 88.9326 33.8193C88.7072 33.6809 88.5302 33.4797 88.4014 33.2157C88.2759 32.9485 88.2131 32.633 88.2131 32.2693C88.2131 31.9055 88.2759 31.5917 88.4014 31.3277C88.5302 31.0605 88.7072 30.8577 88.9326 30.7193C89.1579 30.5809 89.4154 30.5117 89.7051 30.5117C89.9916 30.5117 90.2476 30.5809 90.4729 30.7193C90.6982 30.8577 90.8737 31.0605 90.9992 31.3277C91.128 31.5917 91.1924 31.9055 91.1924 32.2693C91.1924 32.633 91.128 32.9485 90.9992 33.2157C90.8737 33.4797 90.6982 33.6809 90.4729 33.8193C90.2476 33.9577 89.9916 34.0269 89.7051 34.0269ZM89.7051 33.2447C89.8661 33.2447 89.9933 33.1674 90.0866 33.0129C90.1832 32.8552 90.2315 32.6073 90.2315 32.2693C90.2315 31.9313 90.1832 31.685 90.0866 31.5305C89.9933 31.3728 89.8661 31.2939 89.7051 31.2939C89.541 31.2939 89.4106 31.3728 89.314 31.5305C89.2207 31.685 89.174 31.9313 89.174 32.2693C89.174 32.6073 89.2207 32.8552 89.314 33.0129C89.4106 33.1674 89.541 33.2447 89.7051 33.2447Z" fill="white"/>
<path d="M51.1416 12.5299C54.3607 12.5299 56.8329 13.3025 58.5583 14.8476C60.2837 16.367 61.1464 18.6719 61.1464 21.7622V33.6212H55.5066V31.033C54.3735 32.9645 52.2618 33.9302 49.1715 33.9302C47.5749 33.9302 46.1843 33.6598 44.9997 33.119C43.8408 32.5782 42.9523 31.8314 42.3343 30.8785C41.7162 29.9257 41.4072 28.8441 41.4072 27.6337C41.4072 25.7023 42.1283 24.1829 43.5704 23.0755C45.0383 21.9682 47.2916 21.4145 50.3304 21.4145H55.1204C55.1204 20.1011 54.7212 19.0968 53.9229 18.4015C53.1245 17.6804 51.9271 17.3199 50.3304 17.3199C49.2231 17.3199 48.1286 17.5001 47.047 17.8607C45.9911 18.1955 45.0898 18.659 44.343 19.2513L42.1798 15.0408C43.3129 14.2425 44.6649 13.6244 46.2358 13.1866C47.8324 12.7488 49.4677 12.5299 51.1416 12.5299ZM50.6781 29.8742C51.7082 29.8742 52.6224 29.6424 53.4207 29.1789C54.219 28.6896 54.7856 27.9814 55.1204 27.0543V24.9297H50.9871C48.5149 24.9297 47.2787 25.7409 47.2787 27.3633C47.2787 28.1359 47.5749 28.754 48.1672 29.2175C48.7853 29.6553 49.6222 29.8742 50.6781 29.8742Z" fill="white"/>
<path d="M66.6003 12.839H72.6264V33.6212H66.6003V12.839ZM69.6133 9.94181C68.506 9.94181 67.6046 9.61991 66.9093 8.9761C66.214 8.33228 65.8664 7.53396 65.8664 6.58112C65.8664 5.62828 66.214 4.82996 66.9093 4.18615C67.6046 3.54233 68.506 3.22043 69.6133 3.22043C70.7207 3.22043 71.622 3.52946 72.3173 4.14752C73.0127 4.76558 73.3603 5.53815 73.3603 6.46524C73.3603 7.46958 73.0127 8.30653 72.3173 8.9761C71.622 9.61991 70.7207 9.94181 69.6133 9.94181Z" fill="white"/>
<path fill-rule="evenodd" clip-rule="evenodd" d="M16.4979 10.2015C10.2814 10.2015 5.37323 15.0734 5.37323 20.9238H0.26062C0.26062 12.107 7.60277 5.08891 16.4979 5.08891V10.2015Z" fill="white"/>
<path fill-rule="evenodd" clip-rule="evenodd" d="M16.4979 32.0485C22.3482 32.0485 27.2202 27.1403 27.2202 20.9238H32.3328C32.3328 29.8189 25.3146 37.1611 16.4979 37.1611V32.0485Z" fill="white"/>
<path d="M6.43323 34.7587L2.8169 31.1424L26.7165 7.2428L30.3328 10.8591L6.43323 34.7587Z" fill="white"/>
</svg>
