<svg xmlns="http://www.w3.org/2000/svg" width="89.97" height="89.96" viewBox="0 0 89.97 89.96">
  <title>logo</title>
  <path d="M83.13,46.21H90a44.85,44.85,0,0,1-12.7,30.13L72.44,71.5A38,38,0,0,0,83.13,46.21ZM71.51,72.44l4.83,4.83A44.85,44.85,0,0,1,46.3,90V83.13A38,38,0,0,0,71.51,72.44ZM43.67,83.13V90A44.84,44.84,0,0,1,14.21,77.81L19,73A38,38,0,0,0,43.67,83.13ZM18.09,72.07,13.26,76.9A44.86,44.86,0,0,1,0,46.21H6.83A38,38,0,0,0,18.09,72.07ZM90,43.67A44.84,44.84,0,0,0,77.81,14.21L73,19A38,38,0,0,1,83.13,43.67ZM76.9,13.26A44.86,44.86,0,0,0,46.3,0V6.84A38,38,0,0,1,72.07,18.09ZM43.67,0a44.85,44.85,0,0,0-30,12.7l4.83,4.83a38,38,0,0,1,25.2-10.7Zm-31,13.63A44.85,44.85,0,0,0,0,43.67H6.84a38,38,0,0,1,10.7-25.21ZM10.78,46.21a34.11,34.11,0,0,0,10.1,23.07L38.56,51.59a9.19,9.19,0,0,1-2.71-5.39h-4v5.36l-15-5.36Zm21-7.8v5.26h4A9.18,9.18,0,0,1,38,39l-17.7-17.7a34.1,34.1,0,0,0-9.54,22.41h6.29Zm22.29,7.8A9.18,9.18,0,0,1,51.95,51l17.7,17.7a34.1,34.1,0,0,0,9.54-22.51h-6l-15,5.36V46.21Zm0-2.54h4V38.4l14.74,5.27h6.29a34.09,34.09,0,0,0-9-21.84L52.44,39.58A9.17,9.17,0,0,1,54.1,43.67ZM21.26,20.33,39,38a9.21,9.21,0,0,1,12.64.55L69.28,20.88a34.11,34.11,0,0,0-23-10.09v6.29l5.26,14.74H38.4l5.26-14.74V10.79A34.1,34.1,0,0,0,21.26,20.33ZM51,51.95a9.22,9.22,0,0,1-11.44.5L21.83,70.19a34.09,34.09,0,0,0,21.83,9V72.89L38.4,58.15H51.56L46.3,72.89v6.29a34.1,34.1,0,0,0,22.41-9.54L51,51.95Z" style="fill: #12161a"/>
</svg>
