<svg width="100" height="100" viewBox="0 0 100 100" fill="none" xmlns="http://www.w3.org/2000/svg">
<path fill-rule="evenodd" clip-rule="evenodd" d="M100 50C100 50.4092 99.9951 50.8172 99.9853 51.224C99.6709 64.3102 94.3287 76.1508 85.8166 84.8881C85.5104 85.2023 85.2001 85.5126 84.8858 85.8187C76.1692 94.3097 64.3645 99.6459 51.3159 99.983C50.8787 99.9943 50.44 100 50 100C49.5598 100 49.121 99.9943 48.6836 99.983C35.9188 99.6531 24.3444 94.5392 15.6869 86.3679C15.3678 86.0667 15.0526 85.7613 14.7415 85.4519C5.90526 76.6636 0.335901 64.5939 0.0146886 51.224C0.00491479 50.8172 0 50.4092 0 50C0 49.5615 0.00564454 49.1243 0.0168649 48.6885C0.352878 35.6382 5.68933 23.8318 14.1813 15.1142C14.4874 14.7999 14.7977 14.4896 15.1119 14.1834C23.8287 5.69129 35.6342 0.354237 48.6837 0.0169908C49.1211 0.00568675 49.5599 0 50 0C50.44 0 50.8787 0.00568394 51.316 0.0169824C64.6492 0.361475 76.6837 5.92553 85.4519 14.7415C85.7613 15.0526 86.0667 15.3678 86.3679 15.6869C94.5403 24.3455 99.6544 35.9218 99.9831 48.6885C99.9944 49.1243 100 49.5615 100 50ZM94.9837 51.224H88.1496C87.8413 61.044 83.8241 69.9287 77.4523 76.5238L82.2807 81.3522C89.8885 73.5205 94.6711 62.9295 94.9837 51.224ZM81.35 82.2829L76.5217 77.4546C69.9481 83.8078 61.0989 87.8211 51.3159 88.1526V94.9811C62.9838 94.6461 73.539 89.8695 81.35 82.2829ZM48.6836 94.9811V88.1526C39.1838 87.8307 30.5646 84.037 24.0545 78.0004L19.2241 82.8307C26.9744 90.0988 37.2993 94.6541 48.6836 94.9811ZM18.2771 81.9164L23.1046 77.0888C16.4104 70.4405 12.1673 61.3272 11.8501 51.224H5.01632C5.33648 63.213 10.3458 74.0329 18.2771 81.9164ZM94.9813 48.6885C94.6554 37.3023 90.0999 26.9755 82.8307 19.2241L77.9961 24.0587C84.0318 30.5692 87.8248 39.1887 88.1465 48.6885L94.9813 48.6885ZM81.9164 18.2771C74.053 10.3661 63.2684 5.36213 51.316 5.01887V11.8554C61.3811 12.1965 70.4577 16.4348 77.0846 23.1088L81.9164 18.2771ZM48.6837 5.01888C37.0148 5.35408 26.4589 10.1315 18.6478 17.7193L23.48 22.5515C30.0534 16.1994 38.9017 12.1869 48.6837 11.8554V5.01888ZM17.7172 18.65C10.1295 26.462 5.35272 37.0189 5.01874 48.6885H11.8532C12.1845 38.9055 16.1971 30.0561 22.5493 23.4822L17.7172 18.65ZM25.8966 74.2968C19.9172 68.3631 16.1165 60.2368 15.8008 51.224H21.825L36.838 56.5858V51.224H40.8666C41.1448 53.3268 42.1322 55.2058 43.5805 56.6129L25.8966 74.2968ZM36.838 48.6885V43.4241L22.0975 48.6885H15.8043C16.1328 39.9957 19.7034 32.1329 25.3418 26.2747L43.0373 43.9702C41.9065 45.2738 41.1358 46.8982 40.8798 48.6885H36.838ZM56.9643 56.0358C58.1141 54.7094 58.8912 53.0511 59.1329 51.224H63.1615V56.5851L78.1727 51.224H84.1989C83.893 59.9537 80.3177 67.8518 74.6598 73.7313L56.9643 56.0358ZM63.1615 48.6885H59.1198C58.9032 47.1743 58.3185 45.7787 57.4592 44.5956L75.2018 26.853C80.5252 32.6456 83.8776 40.2786 84.1954 48.6885H77.9038L63.1615 43.4234V48.6885ZM43.9681 43.0396L26.2725 25.344C32.1302 19.7058 39.992 16.1352 48.6837 15.8065V22.0993L43.419 36.8404L56.5807 36.8404L51.316 22.0993V15.8065C60.2904 16.1459 68.3802 19.9416 74.2926 25.9008L56.6085 43.5849C54.9344 41.8616 52.5921 40.791 49.9998 40.791C47.6931 40.791 45.5843 41.6387 43.9681 43.0396ZM49.9998 59.2173C52.3076 59.2173 54.4173 58.3688 56.0338 56.9667L73.7292 74.6621C67.8713 80.3015 60.0086 83.8728 51.3159 84.2015V77.9089L56.5806 63.1679H43.4189L48.6836 77.9091V84.2015C40.2739 83.8834 32.641 80.5304 26.8487 75.2061L44.5913 57.4635C46.1101 58.5667 47.979 59.2173 49.9998 59.2173Z" fill="#12161A"/>
</svg>
